<?xml version="1.0" standalone="no"?>
<!DOCTYPE svg PUBLIC "-//W3C//DTD SVG 20010904//EN"
 "http://www.w3.org/TR/2001/REC-SVG-20010904/DTD/svg10.dtd">
<svg version="1.0" xmlns="http://www.w3.org/2000/svg"
 width="700.000000pt" height="700.000000pt" viewBox="0 0 700.000000 700.000000"
 preserveAspectRatio="xMidYMid meet">
<metadata>
Created by potrace 1.14, written by Peter Selinger 2001-2017
</metadata>
<g transform="translate(0.000000,700.000000) scale(0.100000,-0.100000)"
fill="#000000" stroke="none">
<path d="M2445 6994 c-90 -23 -179 -93 -219 -173 -36 -69 -38 -93 -40 -412
l-1 -283 -325 -2 c-304 -1 -330 -2 -410 -24 -253 -67 -459 -261 -538 -507 -32
-96 -35 -146 -36 -473 l-1 -305 -284 -1 c-156 -1 -301 -5 -323 -8 -96 -15
-187 -87 -235 -184 -24 -48 -28 -69 -28 -137 0 -96 30 -169 94 -233 88 -87
144 -98 493 -97 187 1 278 -2 281 -9 3 -10 1 -1284 -2 -1296 0 -3 -124 -5
-273 -5 -322 0 -363 -4 -437 -50 -106 -64 -156 -156 -155 -280 0 -116 42 -200
133 -266 76 -56 109 -61 433 -60 164 0 299 -3 299 -7 1 -4 3 -144 4 -312 1
-168 5 -321 8 -340 24 -155 94 -298 199 -411 97 -103 211 -172 353 -215 89
-26 94 -26 420 -28 l330 -2 2 -298 c1 -248 4 -307 18 -350 42 -129 159 -216
297 -222 114 -5 212 42 279 135 58 78 61 98 62 431 l1 305 646 -1 c355 -1 650
-2 655 -3 7 -1 10 -95 10 -278 0 -153 3 -298 7 -322 18 -102 90 -194 188 -240
75 -35 192 -36 263 -4 90 41 152 109 182 198 14 42 16 95 17 347 0 164 3 298
6 299 4 0 153 2 332 4 317 3 327 3 413 29 210 63 367 186 467 369 27 49 76
175 78 200 0 4 4 26 8 50 4 23 8 182 8 352 l1 310 235 2 c423 3 448 8 538 95
68 65 97 135 97 233 -1 121 -50 212 -151 278 -68 45 -133 53 -436 52 -186 -1
-279 2 -281 9 -3 10 -1 1283 2 1296 0 3 124 6 274 5 284 0 346 5 412 35 57 26
124 96 154 160 37 79 37 192 -1 270 -43 90 -103 144 -193 174 -42 15 -95 17
-350 18 l-300 0 -1 301 c0 329 -3 370 -35 473 -85 277 -321 481 -614 531 -16
3 -172 6 -345 7 l-315 1 -2 280 c-1 321 -4 348 -37 412 -64 124 -170 185 -313
179 -136 -6 -258 -104 -294 -236 -8 -30 -12 -141 -13 -340 l-1 -295 -645 -1
c-355 0 -650 1 -656 3 -7 3 -10 94 -9 281 0 152 -3 297 -7 321 -26 149 -152
258 -306 266 -37 2 -76 2 -87 -1z m2965 -1539 c64 -33 60 112 60 -1950 0
-1598 -2 -1881 -14 -1910 -30 -70 129 -65 -1951 -65 -1598 0 -1881 2 -1910 14
-70 30 -65 -130 -65 1956 0 1659 2 1884 15 1910 33 64 -113 59 1953 60 1664 0
1886 -2 1912 -15z"/>
<path d="M2545 4809 c-66 -3 -133 -11 -149 -18 -49 -20 -121 -78 -149 -119
-62 -94 -59 -36 -59 -1172 0 -949 2 -1039 17 -1085 35 -102 99 -167 204 -209
40 -16 123 -17 1080 -17 765 -1 1049 2 1081 11 114 30 216 138 235 249 8 48 9
2063 1 2101 -25 117 -122 219 -237 250 -33 9 -284 13 -974 14 -511 0 -984 -2
-1050 -5z m1610 -1309 l0 -655 -645 -1 c-355 0 -650 1 -656 3 -7 3 -10 205 -8
656 0 359 2 652 3 652 0 1 295 1 654 0 l652 0 0 -655z"/>
</g>
</svg>
